<?xml version="1.0" encoding="iso-8859-1"?>
<!-- Generator: Adobe Illustrator 19.0.0, SVG Export Plug-In . SVG Version: 6.00 Build 0)  -->
<svg version="1.1" id="Layer_1" xmlns="http://www.w3.org/2000/svg" xmlns:xlink="http://www.w3.org/1999/xlink" x="0px" y="0px"
	 viewBox="0 0 512 512" style="enable-background:new 0 0 512 512;" xml:space="preserve">
<polygon style="fill:#DDB201;" points="224.204,34.689 212.237,7.919 134.347,7.919 134.347,61.467 377.656,61.467 377.656,34.689 
	"/>
<g>
	<rect x="134.347" y="7.919" style="fill:#CBA400;" width="17.512" height="53.548"/>
	<rect x="360.144" y="34.664" style="fill:#CBA400;" width="17.512" height="26.804"/>
</g>
<rect x="134.347" y="61.47" style="fill:#FED322;" width="243.306" height="136.05"/>
<g>
	<rect x="134.347" y="61.47" style="fill:#EEBF00;" width="17.512" height="136.05"/>
	<rect x="360.144" y="61.47" style="fill:#EEBF00;" width="17.512" height="136.05"/>
</g>
<g>
	<polygon style="fill:#ACABB1;" points="281.218,309.122 184.23,309.122 184.23,504.081 327.77,504.081 327.77,355.675 	"/>
	<polygon style="fill:#ACABB1;" points="457.844,309.122 360.856,309.122 360.856,504.081 504.396,504.081 504.396,355.675 	"/>
	<polygon style="fill:#ACABB1;" points="104.592,309.122 7.604,309.122 7.604,504.081 151.144,504.081 151.144,355.675 	"/>
</g>
<g>
	<polygon style="fill:#77767E;" points="104.592,309.122 104.592,355.675 151.144,355.675 	"/>
	<polygon style="fill:#77767E;" points="281.218,309.122 281.218,355.675 327.77,355.675 	"/>
	<polygon style="fill:#77767E;" points="457.844,309.122 457.844,355.675 504.396,355.675 	"/>
</g>
<g>
	<path style="fill:#FFFFFF;" d="M51.4,390.949v27.818h-7.64v-10.892h-9.324v10.892h-7.64v-27.818h7.64v10.265h9.324v-10.265H51.4z"
		/>
	<path style="fill:#FFFFFF;" d="M77.846,397.61h-7.992v21.157h-7.64V397.61h-8.032v-6.66h23.665V397.61z"/>
	<path style="fill:#FFFFFF;" d="M101.668,418.767v-14.653l-4.663,10.305h-4.075l-4.663-10.305v14.653h-7.64v-27.818h8.345
		l5.995,13.086l6.035-13.086h8.306v27.818H101.668z"/>
	<path style="fill:#FFFFFF;" d="M114.088,418.767v-27.818h7.64v21.157h12.615v6.66L114.088,418.767L114.088,418.767z"/>
	<path style="fill:#FFFFFF;" d="M219.151,404.623c0-1.697,0.319-3.369,0.96-5.015c0.64-1.645,1.574-3.122,2.801-4.428
		c1.227-1.306,2.716-2.363,4.466-3.173c1.75-0.809,3.748-1.215,5.995-1.215c2.69,0,5.022,0.556,6.994,1.666s3.441,2.579,4.407,4.408
		l-5.838,4.153c-0.262-0.679-0.607-1.241-1.038-1.685c-0.431-0.444-0.907-0.797-1.43-1.057c-0.523-0.261-1.065-0.444-1.626-0.548
		c-0.562-0.104-1.103-0.157-1.626-0.157c-1.097,0-2.044,0.216-2.841,0.647s-1.45,0.993-1.959,1.685
		c-0.509,0.692-0.888,1.476-1.137,2.351c-0.248,0.875-0.372,1.744-0.372,2.606c0,0.967,0.143,1.894,0.431,2.782
		c0.287,0.888,0.706,1.672,1.254,2.351c0.548,0.679,1.221,1.222,2.018,1.626c0.797,0.406,1.69,0.607,2.684,0.607
		c0.522,0,1.057-0.059,1.606-0.176c0.549-0.118,1.078-0.313,1.587-0.588s0.966-0.628,1.372-1.057c0.405-0.431,0.725-0.96,0.96-1.587
		l6.23,3.722c-0.418,1.019-1.051,1.933-1.9,2.742c-0.849,0.81-1.816,1.489-2.9,2.038c-1.084,0.548-2.247,0.966-3.487,1.253
		c-1.24,0.287-2.448,0.431-3.625,0.431c-2.063,0-3.951-0.412-5.661-1.234c-1.711-0.823-3.188-1.913-4.428-3.272
		c-1.241-1.358-2.201-2.899-2.879-4.623C219.491,408.149,219.151,406.4,219.151,404.623z"/>
	<path style="fill:#FFFFFF;" d="M264.6,400.039c-0.783-0.469-1.593-0.887-2.429-1.253c-0.706-0.313-1.496-0.607-2.371-0.882
		c-0.875-0.275-1.73-0.412-2.565-0.412c-0.679,0-1.222,0.104-1.626,0.313c-0.406,0.21-0.607,0.562-0.607,1.057
		c0,0.366,0.118,0.666,0.353,0.901s0.574,0.45,1.018,0.647c0.444,0.197,0.985,0.385,1.626,0.569c0.64,0.182,1.365,0.405,2.175,0.666
		c1.281,0.392,2.435,0.823,3.468,1.293c1.031,0.47,1.913,1.025,2.644,1.666c0.731,0.64,1.293,1.416,1.684,2.331
		c0.392,0.914,0.588,2.025,0.588,3.331c0,1.672-0.308,3.076-0.921,4.212c-0.613,1.137-1.423,2.044-2.429,2.723
		c-1.005,0.679-2.141,1.169-3.408,1.469c-1.267,0.3-2.541,0.45-3.821,0.45c-1.018,0-2.063-0.078-3.134-0.235
		c-1.072-0.156-2.135-0.378-3.193-0.666c-1.057-0.287-2.076-0.627-3.057-1.019c-0.979-0.391-1.887-0.835-2.723-1.332l3.291-6.7
		c0.913,0.575,1.868,1.084,2.86,1.528c0.835,0.392,1.782,0.744,2.841,1.057c1.058,0.313,2.135,0.47,3.232,0.47
		c0.835,0,1.416-0.111,1.744-0.334c0.326-0.221,0.49-0.515,0.49-0.881c0-0.392-0.163-0.725-0.49-1
		c-0.326-0.275-0.778-0.515-1.351-0.725c-0.575-0.209-1.235-0.418-1.979-0.627c-0.744-0.209-1.535-0.457-2.37-0.744
		c-1.228-0.418-2.285-0.868-3.173-1.352c-0.888-0.484-1.62-1.032-2.194-1.645c-0.575-0.613-1-1.313-1.273-2.097
		c-0.275-0.783-0.412-1.685-0.412-2.703c0-1.541,0.281-2.9,0.843-4.075c0.562-1.176,1.325-2.154,2.292-2.938
		c0.966-0.784,2.07-1.378,3.31-1.782s2.553-0.607,3.938-0.607c1.019,0,2.01,0.098,2.978,0.294c0.966,0.196,1.901,0.444,2.802,0.744
		c0.901,0.301,1.744,0.628,2.527,0.979c0.784,0.353,1.489,0.685,2.116,0.999L264.6,400.039z"/>
	<path style="fill:#FFFFFF;" d="M288.774,400.039c-0.784-0.469-1.594-0.887-2.429-1.253c-0.705-0.313-1.495-0.607-2.37-0.882
		c-0.875-0.275-1.731-0.412-2.566-0.412c-0.679,0-1.222,0.104-1.626,0.313c-0.406,0.21-0.608,0.562-0.608,1.057
		c0,0.366,0.118,0.666,0.354,0.901c0.234,0.235,0.574,0.45,1.018,0.647c0.444,0.196,0.986,0.385,1.626,0.569
		c0.64,0.182,1.365,0.405,2.175,0.666c1.279,0.392,2.435,0.823,3.467,1.293s1.913,1.025,2.644,1.666
		c0.731,0.64,1.293,1.416,1.685,2.331c0.391,0.914,0.587,2.025,0.587,3.331c0,1.672-0.307,3.076-0.921,4.212
		c-0.613,1.135-1.423,2.044-2.429,2.723c-1.006,0.679-2.142,1.169-3.409,1.469c-1.267,0.3-2.541,0.45-3.82,0.45
		c-1.019,0-2.063-0.078-3.135-0.235c-1.072-0.156-2.135-0.378-3.193-0.666c-1.057-0.287-2.076-0.627-3.057-1.019
		c-0.979-0.391-1.887-0.835-2.723-1.332l3.291-6.7c0.914,0.575,1.868,1.084,2.86,1.528c0.835,0.392,1.782,0.744,2.841,1.057
		c1.057,0.313,2.135,0.47,3.232,0.47c0.835,0,1.415-0.111,1.744-0.334c0.325-0.221,0.489-0.515,0.489-0.881
		c0-0.392-0.163-0.725-0.489-1c-0.327-0.275-0.779-0.515-1.353-0.725c-0.574-0.209-1.234-0.418-1.978-0.627
		c-0.744-0.209-1.535-0.457-2.37-0.744c-1.228-0.418-2.286-0.868-3.173-1.352c-0.889-0.484-1.621-1.032-2.194-1.645
		c-0.575-0.613-1-1.313-1.274-2.097c-0.275-0.783-0.411-1.685-0.411-2.703c0-1.541,0.28-2.9,0.843-4.075
		c0.562-1.176,1.325-2.154,2.292-2.938c0.965-0.784,2.069-1.378,3.31-1.782s2.554-0.607,3.938-0.607
		c1.019,0,2.012,0.098,2.979,0.294c0.966,0.196,1.9,0.444,2.801,0.744c0.901,0.301,1.744,0.628,2.528,0.979
		c0.783,0.353,1.488,0.685,2.116,0.999L288.774,400.039z"/>
	<path style="fill:#FFFFFF;" d="M412.429,411.245c0.078,0.053,0.248,0.144,0.51,0.275c0.261,0.131,0.587,0.262,0.979,0.392
		c0.392,0.131,0.842,0.248,1.351,0.353c0.51,0.105,1.038,0.157,1.587,0.157c0.809,0,1.462-0.131,1.959-0.392
		c0.496-0.261,0.875-0.685,1.137-1.273c0.261-0.588,0.431-1.345,0.51-2.272c0.078-0.927,0.117-2.057,0.117-3.389V390.95h7.64v14.144
		c0,2.116-0.118,4.042-0.353,5.779c-0.235,1.737-0.744,3.219-1.529,4.447c-0.783,1.228-1.926,2.181-3.428,2.86
		c-1.503,0.678-3.521,1.019-6.054,1.019c-2.35,0-4.363-0.574-6.033-1.725L412.429,411.245z"/>
	<path style="fill:#FFFFFF;" d="M449.532,400.039c-0.783-0.469-1.593-0.887-2.429-1.253c-0.706-0.313-1.496-0.607-2.371-0.882
		c-0.875-0.275-1.73-0.412-2.565-0.412c-0.68,0-1.222,0.104-1.626,0.313c-0.405,0.21-0.607,0.562-0.607,1.057
		c0,0.366,0.118,0.666,0.353,0.901c0.235,0.235,0.574,0.45,1.019,0.647c0.444,0.196,0.985,0.385,1.626,0.569
		c0.64,0.182,1.365,0.405,2.175,0.666c1.28,0.392,2.435,0.823,3.468,1.293c1.031,0.47,1.913,1.025,2.644,1.666
		c0.731,0.64,1.293,1.416,1.684,2.331c0.392,0.914,0.588,2.025,0.588,3.331c0,1.672-0.308,3.076-0.921,4.212
		c-0.613,1.137-1.423,2.044-2.429,2.723c-1.005,0.679-2.141,1.169-3.408,1.469c-1.267,0.3-2.541,0.45-3.821,0.45
		c-1.018,0-2.063-0.078-3.134-0.235c-1.072-0.156-2.135-0.378-3.193-0.666c-1.058-0.287-2.077-0.627-3.057-1.019
		c-0.979-0.391-1.887-0.835-2.723-1.332l3.291-6.7c0.914,0.575,1.868,1.084,2.859,1.528c0.835,0.392,1.783,0.744,2.841,1.057
		c1.058,0.313,2.135,0.47,3.232,0.47c0.835,0,1.416-0.111,1.744-0.334c0.326-0.221,0.49-0.515,0.49-0.881
		c0-0.392-0.163-0.725-0.49-1s-0.778-0.515-1.351-0.725c-0.575-0.209-1.235-0.418-1.979-0.627c-0.743-0.209-1.535-0.457-2.37-0.744
		c-1.228-0.418-2.285-0.868-3.173-1.352c-0.888-0.484-1.62-1.032-2.194-1.645c-0.575-0.613-0.999-1.313-1.273-2.097
		c-0.275-0.783-0.412-1.685-0.412-2.703c0-1.541,0.281-2.9,0.842-4.075c0.562-1.176,1.326-2.154,2.292-2.938s2.07-1.378,3.311-1.782
		s2.553-0.607,3.938-0.607c1.019,0,2.01,0.098,2.978,0.294c0.966,0.196,1.901,0.444,2.802,0.744
		c0.901,0.301,1.744,0.628,2.527,0.979c0.784,0.353,1.489,0.685,2.116,0.999L449.532,400.039z"/>
</g>
<g>
	<path style="fill:#010101;" d="M86.978,301.518v-15.715H71.77v15.715H0v210.166h158.748V352.526l-51.007-51.007H86.978z
		 M112.196,327.479l20.592,20.592h-20.592V327.479z M15.208,496.477V316.726h81.78v46.553h46.552v133.198H15.208V496.477z"/>
	<path style="fill:#010101;" d="M262.124,301.518v-17.743h-15.208v17.743h-70.29v210.166h158.748V352.526l-51.007-51.007H262.124z
		 M288.822,327.479l20.592,20.592h-20.592V327.479z M191.834,496.477V316.726h81.78v46.553h46.552v133.198H191.834V496.477z"/>
	<path style="fill:#010101;" d="M460.993,301.518h-24.018v-15.715h-15.208v15.715h-68.515v210.166H512V352.526L460.993,301.518z
		 M465.448,327.479l20.592,20.592h-20.592V327.479z M368.46,496.477V316.726h81.78v46.553h46.552v133.198H368.46V496.477z"/>
	<path style="fill:#010101;" d="M126.743,205.118h120.173v17.743h15.208v-17.743H385.26V53.863V27.085H229.134l-11.967-26.77
		h-90.424v53.548h-0.003L126.743,205.118z M370.052,189.91H141.951V69.071h228.102L370.052,189.91L370.052,189.91z M141.951,15.523
		h65.357l11.967,26.77h150.778v11.57H141.951V15.523z"/>
	<polygon style="fill:#010101;" points="86.978,262.207 104.721,262.207 104.721,246.999 71.77,246.999 71.77,279.949 
		86.978,279.949 	"/>
	<rect x="334.949" y="246.997" style="fill:#010101;" width="46.05" height="15.208"/>
	<rect x="268.207" y="246.997" style="fill:#010101;" width="43.728" height="15.208"/>
	<rect x="127.747" y="246.997" style="fill:#010101;" width="46.05" height="15.208"/>
	<rect x="196.811" y="246.997" style="fill:#010101;" width="44.022" height="15.208"/>
	<polygon style="fill:#010101;" points="421.766,279.949 436.974,279.949 436.974,246.999 404.024,246.999 404.024,262.207 
		421.766,262.207 	"/>
	<rect x="246.916" y="238.085" style="fill:#010101;" width="15.208" height="30.456"/>
	
		<rect x="212.766" y="119.974" transform="matrix(0.498 -0.8672 0.8672 0.498 17.8953 286.0685)" style="fill:#010101;" width="86.525" height="15.208"/>
</g>
<g>
</g>
<g>
</g>
<g>
</g>
<g>
</g>
<g>
</g>
<g>
</g>
<g>
</g>
<g>
</g>
<g>
</g>
<g>
</g>
<g>
</g>
<g>
</g>
<g>
</g>
<g>
</g>
<g>
</g>
</svg>
